<?xml version="1.0" encoding="UTF-8" standalone="no"?>
<!-- Created with Inkscape (http://www.inkscape.org/) -->

<svg
   width="32"
   height="32"
   viewBox="0 0 32 32"
   version="1.1"
   id="svg1"
   inkscape:version="1.3 (0e150ed6c4, 2023-07-21)"
   sodipodi:docname="user.svg"
   xmlns:inkscape="http://www.inkscape.org/namespaces/inkscape"
   xmlns:sodipodi="http://sodipodi.sourceforge.net/DTD/sodipodi-0.dtd"
   xmlns="http://www.w3.org/2000/svg"
   xmlns:svg="http://www.w3.org/2000/svg">
  <sodipodi:namedview
     id="namedview1"
     pagecolor="#ffffff"
     bordercolor="#000000"
     borderopacity="0.25"
     inkscape:showpageshadow="2"
     inkscape:pageopacity="0.0"
     inkscape:pagecheckerboard="0"
     inkscape:deskcolor="#d1d1d1"
     inkscape:document-units="px"
     inkscape:zoom="17.765625"
     inkscape:cx="9.1187335"
     inkscape:cy="13.481091"
     inkscape:window-width="2560"
     inkscape:window-height="1351"
     inkscape:window-x="1341"
     inkscape:window-y="280"
     inkscape:window-maximized="1"
     inkscape:current-layer="layer1" />
  <defs
     id="defs1">
    <inkscape:path-effect
       effect="powermask"
       id="path-effect4"
       is_visible="true"
       lpeversion="1"
       uri="#mask-powermask-path-effect4"
       invert="false"
       hide_mask="false"
       background="true"
       background_color="#ffffffff" />
    <mask
       maskUnits="userSpaceOnUse"
       id="mask-powermask-path-effect4">
      <path
         id="mask-powermask-path-effect4_box"
         style="fill:#ffffff;fill-opacity:1"
         d="M -1,-1 H 33 V 33 H -1 Z" />
      <g
         id="g4"
         inkscape:label="mask"
         style="">
        <circle
           style="fill:#000000;fill-opacity:1;stroke:none;stroke-width:4;stroke-linecap:round;stroke-linejoin:round;stroke-dasharray:none;stroke-opacity:1"
           id="circle3"
           cx="16"
           cy="32"
           r="16"
           inkscape:label="body"
           d="M 32,32 A 16,16 0 0 1 16,48 16,16 0 0 1 0,32 16,16 0 0 1 16,16 16,16 0 0 1 32,32 Z" />
        <circle
           style="fill:#000000;fill-opacity:1;stroke:none;stroke-width:4;stroke-linecap:round;stroke-linejoin:round;stroke-dasharray:none;stroke-opacity:1"
           id="circle4"
           cx="16"
           cy="10"
           r="6"
           inkscape:label="head"
           d="m 22,10 a 6,6 0 0 1 -6,6 6,6 0 0 1 -6,-6 6,6 0 0 1 6,-6 6,6 0 0 1 6,6 z" />
      </g>
    </mask>
    <filter
       id="mask-powermask-path-effect4_inverse"
       inkscape:label="filtermask-powermask-path-effect4"
       style="color-interpolation-filters:sRGB"
       height="100"
       width="100"
       x="-50"
       y="-50">
      <feColorMatrix
         id="mask-powermask-path-effect4_primitive1"
         values="1"
         type="saturate"
         result="fbSourceGraphic" />
      <feColorMatrix
         id="mask-powermask-path-effect4_primitive2"
         values="-1 0 0 0 1 0 -1 0 0 1 0 0 -1 0 1 0 0 0 1 0 "
         in="fbSourceGraphic" />
    </filter>
  </defs>
  <g
     inkscape:label="Слой 1"
     inkscape:groupmode="layer"
     id="layer1">
    <path
       style="display:inline;fill:#808080;fill-opacity:1;stroke:none;stroke-width:4;stroke-linecap:round;stroke-linejoin:round;stroke-dasharray:none;stroke-opacity:1"
       id="circle1"
       inkscape:label="circle"
       mask="url(#mask-powermask-path-effect4)"
       inkscape:path-effect="#path-effect4"
       sodipodi:type="arc"
       sodipodi:cx="16"
       sodipodi:cy="16"
       sodipodi:rx="16"
       sodipodi:ry="16"
       d="M 32,16 A 16,16 0 0 1 16,32 16,16 0 0 1 0,16 16,16 0 0 1 16,0 16,16 0 0 1 32,16 Z" />
    <circle
       style="display:inline;fill:none;fill-opacity:1;stroke:#808080;stroke-width:4;stroke-linecap:round;stroke-linejoin:round;stroke-dasharray:none;stroke-opacity:1"
       id="path1"
       cx="16"
       cy="16"
       r="14"
       inkscape:label="frame" />
  </g>
</svg>
