<?xml version="1.0" encoding="UTF-8" standalone="no"?>
<!-- Created with Inkscape (http://www.inkscape.org/) -->

<svg
   width="32"
   height="32"
   viewBox="0 0 32 32"
   version="1.1"
   id="svg1"
   inkscape:version="1.3 (0e150ed6c4, 2023-07-21)"
   sodipodi:docname="text_chat.svg"
   xmlns:inkscape="http://www.inkscape.org/namespaces/inkscape"
   xmlns:sodipodi="http://sodipodi.sourceforge.net/DTD/sodipodi-0.dtd"
   xmlns="http://www.w3.org/2000/svg"
   xmlns:svg="http://www.w3.org/2000/svg">
  <sodipodi:namedview
     id="namedview1"
     pagecolor="#ffffff"
     bordercolor="#000000"
     borderopacity="0.25"
     inkscape:showpageshadow="2"
     inkscape:pageopacity="0.0"
     inkscape:pagecheckerboard="0"
     inkscape:deskcolor="#d1d1d1"
     inkscape:document-units="px"
     inkscape:zoom="11.313708"
     inkscape:cx="-11.313709"
     inkscape:cy="17.191534"
     inkscape:window-width="2560"
     inkscape:window-height="1351"
     inkscape:window-x="1341"
     inkscape:window-y="280"
     inkscape:window-maximized="1"
     inkscape:current-layer="layer1" />
  <defs
     id="defs1">
    <inkscape:path-effect
       effect="fillet_chamfer"
       id="path-effect7"
       is_visible="true"
       lpeversion="1"
       nodesatellites_param="F,0,0,1,0,2,0,1 @ F,0,1,1,0,1,0,1 @ F,0,0,1,0,2,0,1 @ F,0,0,1,0,2,0,1 @ F,0,1,1,0,1,0,1 @ F,0,1,1,0,1,0,1 @ F,0,0,1,0,2,0,1 @ F,0,0,1,0,2,0,1 @ F,0,1,1,0,1,0,1 @ F,0,0,1,0,2,0,1 @ F,0,0,1,0,2,0,1 @ F,0,1,1,0,1,0,1 @ F,0,1,1,0,1,0,1 @ F,0,0,1,0,2,0,1 @ F,0,0,1,0,2,0,1 @ F,0,1,1,0,1,0,1 @ F,0,0,1,0,2,0,1 @ F,0,0,1,0,2,0,1 @ F,0,0,1,0,1,0,1 @ F,0,0,1,0,1,0,1 @ F,0,0,1,0,2,0,1 @ F,0,0,1,0,2,0,1 @ F,0,1,1,0,1,0,1 @ F,0,0,1,0,2,0,1 @ F,0,0,1,0,2,0,1 @ F,0,1,1,0,1,0,1 @ F,0,1,1,0,1,0,1 @ F,0,0,1,0,2,0,1 | F,0,1,1,0,1,0,1 @ F,0,1,1,0,1,0,1 @ F,0,1,1,0,1,0,1 @ F,0,1,1,0,1,0,1"
       radius="1"
       unit="px"
       method="auto"
       mode="F"
       chamfer_steps="1"
       flexible="false"
       use_knot_distance="true"
       apply_no_radius="true"
       apply_with_radius="true"
       only_selected="false"
       hide_knots="false" />
    <inkscape:path-effect
       effect="fillet_chamfer"
       id="path-effect1"
       is_visible="true"
       lpeversion="1"
       nodesatellites_param="F,0,0,1,0,1.3,0,1 @ F,0,0,1,0,1.3,0,1 @ F,0,0,1,0,1.3,0,1 @ F,0,0,1,0,1.3,0,1 @ F,0,0,1,0,1.3,0,1 @ F,0,0,1,0,1.3,0,1 @ F,0,0,1,0,1.3,0,1 @ F,0,0,1,0,1.3,0,1 @ F,0,0,1,0,1.3,0,1 @ F,0,0,1,0,1.3,0,1 @ F,0,0,1,0,1.3,0,1 @ F,0,0,1,0,1.3,0,1 @ F,0,0,1,0,1.3,0,1 @ F,0,0,1,0,1.3,0,1 @ F,0,0,1,0,1.3,0,1 @ F,0,0,1,0,1.3,0,1 @ F,0,0,1,0,1.3,0,1 @ F,0,0,1,0,1.3,0,1 @ F,0,0,1,0,1.3,0,1 @ F,0,0,1,0,1.3,0,1 @ F,0,0,1,0,1.3,0,1 @ F,0,0,1,0,1.3,0,1 @ F,0,0,1,0,1.3,0,1 @ F,0,0,1,0,1.3,0,1 @ F,0,0,1,0,1.3,0,1 @ F,0,0,1,0,1.3,0,1 @ F,0,0,1,0,1.3,0,1 @ F,0,0,1,0,1.3,0,1 | F,0,0,1,0,1.3,0,1 @ F,0,0,1,0,1.3,0,1 @ F,0,0,1,0,1.3,0,1 @ F,0,0,1,0,1.3,0,1"
       radius="1.3"
       unit="px"
       method="auto"
       mode="F"
       chamfer_steps="1"
       flexible="false"
       use_knot_distance="true"
       apply_no_radius="true"
       apply_with_radius="true"
       only_selected="false"
       hide_knots="false" />
  </defs>
  <g
     inkscape:label="Слой 1"
     inkscape:groupmode="layer"
     id="layer1">
    <path
       style="color:#000000;fill:#808080;stroke-linejoin:round;stroke-dashoffset:10.8;-inkscape-stroke:none;fill-opacity:1"
       d="M 11.666773,1.5966401 10.650989,7.0171096 A 1.2048053,1.2048053 140.307 0 1 9.466797,8 H 5.25 a 2,2 135 0 0 -2,2 2,2 45 0 0 2,2 h 3.4667969 a 0.82992629,0.82992629 50.309828 0 1 0.8157115,0.982872 l -1.131423,6.034256 A 1.2049263,1.2049263 140.30983 0 1 7.2167969,20 L 3.75,20 a 2,2 135 0 0 -2,2 2,2 45 0 0 2,2 h 2.7167969 a 0.82983494,0.82983494 50.312927 0 1 0.8156051,0.982852 l -0.8784561,4.682303 a 2.0005042,2.0005042 55.633075 0 0 1.5968218,2.334989 1.9983018,1.9983018 145.60475 0 0 2.3324593,-1.596784 l 1.015784,-5.42047 A 1.2048053,1.2048053 140.307 0 1 12.533203,24 h 3.933594 a 0.8298349,0.8298349 50.312928 0 1 0.815605,0.982852 l -0.878456,4.682303 a 2.0005041,2.0005041 55.633076 0 0 1.596821,2.334989 1.998302,1.998302 145.60476 0 0 2.33246,-1.596784 l 1.015784,-5.42047 A 1.2048053,1.2048053 140.307 0 1 22.533203,24 H 26.75 a 2,2 135 0 0 2,-2 2,2 45 0 0 -2,-2 h -3.466797 a 0.82992629,0.82992629 50.309828 0 1 -0.815711,-0.982872 l 1.131422,-6.034256 A 1.2049263,1.2049263 140.30983 0 1 24.783203,12 H 28.25 a 2,2 135 0 0 2,-2 2,2 45 0 0 -2,-2 H 25.533203 A 0.82983491,0.82983491 50.312928 0 1 24.717598,7.0171478 L 25.596054,2.3348451 A 2.0005037,2.0005037 55.63307 0 0 23.999232,-1.441993e-4 1.9983023,1.9983023 145.60475 0 0 21.666773,1.5966401 L 20.650989,7.0171096 A 1.2048053,1.2048053 140.307 0 1 19.466797,8 H 15.533203 A 0.82983491,0.82983491 50.312928 0 1 14.717598,7.0171478 L 15.596054,2.3348451 A 2.0005037,2.0005037 55.63307 0 0 13.999232,-1.441993e-4 1.9983023,1.9983023 145.60475 0 0 11.666773,1.5966401 Z M 14.783203,12 h 3.933594 a 0.82992629,0.82992629 50.309828 0 1 0.815711,0.982872 l -1.131422,6.034256 A 1.2049263,1.2049263 140.30983 0 1 17.216797,20 h -3.933594 a 0.82992629,0.82992629 50.309828 0 1 -0.815711,-0.982872 l 1.131422,-6.034256 A 1.2049263,1.2049263 140.30983 0 1 14.783203,12 Z"
       id="path6"
       inkscape:path-effect="#path-effect7"
       inkscape:original-d="M 12.035156,-0.36914063 10.466797,8 H 3.25 v 4 h 6.4667969 l -1.5,8 H 1.75 v 4 H 7.4667969 L 6.0351562,31.630859 9.9648438,32.369141 11.533203,24 h 5.933594 l -1.431641,7.630859 3.929688,0.738282 L 21.533203,24 H 28.75 v -4 h -6.466797 l 1.5,-8 H 30.25 V 8 H 24.533203 L 25.964844,0.36914063 22.035156,-0.36914063 20.466797,8 H 14.533203 L 15.964844,0.36914063 Z M 13.783203,12 h 5.933594 l -1.5,8 h -5.933594 z" />
    <text
       xml:space="preserve"
       style="fill:#2a2a2a;stroke:none;stroke-width:1;stroke-linecap:round;stroke-linejoin:round;stroke-dasharray:none;stroke-dashoffset:10.8;stroke-opacity:1;paint-order:normal"
       x="5.9957771"
       y="11.970453"
       id="text2"><tspan
         sodipodi:role="line"
         id="tspan1"
         x="5.9957771"
         y="11.970453" /></text>
    <text
       xml:space="preserve"
       style="fill:#2a2a2a;stroke:none;stroke-width:1;stroke-linecap:round;stroke-linejoin:round;stroke-dasharray:none;stroke-dashoffset:10.8;stroke-opacity:1;paint-order:normal"
       x="1.3125"
       y="2.9375"
       id="text3"><tspan
         id="tspan2"
         sodipodi:role="line"></tspan></text>
  </g>
</svg>
